<svg width="558" height="435" viewBox="0 0 558 435" fill="none" xmlns="http://www.w3.org/2000/svg">
<path d="M187.084 8.07092C189.282 8.29203 191.244 6.68933 191.466 4.49118C191.688 2.29304 190.086 0.331841 187.889 0.110729L187.084 8.07092ZM170.023 46.9791L172.182 43.6107L170.023 46.9791ZM214.2 29.0427L211.603 32.0862L214.2 29.0427ZM230.089 85.7686C232.226 86.3276 234.412 85.0481 234.972 82.9107C235.532 80.7734 234.253 78.5876 232.116 78.0285L230.089 85.7686ZM187.889 0.110729C176.014 -1.0839 165.256 7.9801 160.32 18.1671C157.784 23.4009 156.522 29.3822 157.508 35.1665C158.514 41.065 161.822 46.4755 167.864 50.3474L172.182 43.6107C168.025 40.9469 166.02 37.4874 165.394 33.8177C164.749 30.0338 165.534 25.7485 167.519 21.6532C171.623 13.182 179.796 7.33768 187.084 8.07092L187.889 0.110729ZM167.864 50.3474C182.274 59.582 196.916 56.2218 206.651 49.8727C211.482 46.7221 215.351 42.6942 217.527 38.7597C218.607 36.8056 219.401 34.6365 219.484 32.46C219.571 30.1786 218.855 27.7548 216.797 25.9992L211.603 32.0862C211.409 31.92 211.505 31.7594 211.49 32.1578C211.471 32.6612 211.246 33.5886 210.526 34.8906C209.101 37.4682 206.241 40.5907 202.283 43.1719C194.441 48.2864 183.269 50.7155 172.182 43.6107L167.864 50.3474ZM216.797 25.9992C214.023 23.6317 210.964 22.285 207.77 21.9895C204.599 21.6961 201.582 22.4647 198.898 23.854C193.624 26.5833 189.318 31.8442 186.549 37.5805C183.767 43.3458 182.257 50.1626 183.175 56.4243C184.118 62.8628 187.68 68.7554 194.816 71.7355L197.902 64.3528C193.764 62.6248 191.695 59.3901 191.09 55.2604C190.458 50.954 191.482 45.7619 193.753 41.0558C196.039 36.3206 199.309 32.6477 202.572 30.959C204.155 30.1394 205.647 29.828 207.03 29.9559C208.389 30.0816 209.929 30.6575 211.603 32.0862L216.797 25.9992ZM194.816 71.7355C207.721 77.1248 218.882 73.1412 225.75 66.8179C229.128 63.7074 231.598 59.9217 232.711 56.2285C233.772 52.7057 233.844 48.1503 230.524 45.0855L225.096 50.9649C225.112 50.9797 225.738 51.6435 225.051 53.923C224.416 56.032 222.833 58.6317 220.333 60.933C215.445 65.4334 207.544 68.3797 197.902 64.3528L194.816 71.7355ZM230.524 45.0855C228.542 43.2553 226.019 42.8746 223.724 43.6689C221.731 44.3587 220.134 45.8329 218.946 47.3091C216.514 50.329 214.605 54.8297 213.81 59.5879C213.01 64.3738 213.259 69.8985 215.723 74.8233C218.258 79.8905 222.931 83.896 230.089 85.7686L232.116 78.0285C227.008 76.6922 224.302 74.0892 222.877 71.2411C221.381 68.2506 221.09 64.5532 221.7 60.9031C222.315 57.2253 223.765 54.0761 225.175 52.3249C225.907 51.4156 226.352 51.224 226.337 51.2293C226.019 51.3391 225.411 51.2554 225.096 50.9649L230.524 45.0855Z" fill="#222325"/>
<path d="M187.084 8.07092C189.282 8.29203 191.244 6.68933 191.466 4.49118C191.688 2.29304 190.086 0.331841 187.889 0.110729L187.084 8.07092ZM170.023 46.9791L172.182 43.6107L170.023 46.9791ZM214.2 29.0427L211.603 32.0862L214.2 29.0427ZM230.089 85.7686C232.226 86.3276 234.412 85.0481 234.972 82.9107C235.532 80.7734 234.253 78.5876 232.116 78.0285L230.089 85.7686ZM187.889 0.110729C176.014 -1.0839 165.256 7.9801 160.32 18.1671C157.784 23.4009 156.522 29.3822 157.508 35.1665C158.514 41.065 161.822 46.4755 167.864 50.3474L172.182 43.6107C168.025 40.9469 166.02 37.4874 165.394 33.8177C164.749 30.0338 165.534 25.7485 167.519 21.6532C171.623 13.182 179.796 7.33768 187.084 8.07092L187.889 0.110729ZM167.864 50.3474C182.274 59.582 196.916 56.2218 206.651 49.8727C211.482 46.7221 215.351 42.6942 217.527 38.7597C218.607 36.8056 219.401 34.6365 219.484 32.46C219.571 30.1786 218.855 27.7548 216.797 25.9992L211.603 32.0862C211.409 31.92 211.505 31.7594 211.49 32.1578C211.471 32.6612 211.246 33.5886 210.526 34.8906C209.101 37.4682 206.241 40.5907 202.283 43.1719C194.441 48.2864 183.269 50.7155 172.182 43.6107L167.864 50.3474ZM216.797 25.9992C214.023 23.6317 210.964 22.285 207.77 21.9895C204.599 21.6961 201.582 22.4647 198.898 23.854C193.624 26.5833 189.318 31.8442 186.549 37.5805C183.767 43.3458 182.257 50.1626 183.175 56.4243C184.118 62.8628 187.68 68.7554 194.816 71.7355L197.902 64.3528C193.764 62.6248 191.695 59.3901 191.09 55.2604C190.458 50.954 191.482 45.7619 193.753 41.0558C196.039 36.3206 199.309 32.6477 202.572 30.959C204.155 30.1394 205.647 29.828 207.03 29.9559C208.389 30.0816 209.929 30.6575 211.603 32.0862L216.797 25.9992ZM194.816 71.7355C207.721 77.1248 218.882 73.1412 225.75 66.8179C229.128 63.7074 231.598 59.9217 232.711 56.2285C233.772 52.7057 233.844 48.1503 230.524 45.0855L225.096 50.9649C225.112 50.9797 225.738 51.6435 225.051 53.923C224.416 56.032 222.833 58.6317 220.333 60.933C215.445 65.4334 207.544 68.3797 197.902 64.3528L194.816 71.7355ZM230.524 45.0855C228.542 43.2553 226.019 42.8746 223.724 43.6689C221.731 44.3587 220.134 45.8329 218.946 47.3091C216.514 50.329 214.605 54.8297 213.81 59.5879C213.01 64.3738 213.259 69.8985 215.723 74.8233C218.258 79.8905 222.931 83.896 230.089 85.7686L232.116 78.0285C227.008 76.6922 224.302 74.0892 222.877 71.2411C221.381 68.2506 221.09 64.5532 221.7 60.9031C222.315 57.2253 223.765 54.0761 225.175 52.3249C225.907 51.4156 226.352 51.224 226.337 51.2293C226.019 51.3391 225.411 51.2554 225.096 50.9649L230.524 45.0855Z" fill="black" fill-opacity="0.2"/>
<path d="M420.749 256.229C361.567 244.246 326.999 223.901 205.058 199.463C155.762 189.584 45.6024 199.983 84.5906 244.121C109.718 272.568 67.1661 281.032 40.9132 279.558C14.6603 278.084 -46.7898 332.822 96.9897 339.542C240.769 346.261 285.443 388.012 323.893 394.231C362.343 400.449 543.271 411.961 548.259 374.352C553.248 336.742 427.59 328.333 466.487 303.453C505.383 278.573 494.726 271.209 420.749 256.229Z" fill="#FABF48"/>
<path d="M100.81 241.703C99.2431 243.03 96.875 242.864 95.5205 241.338C94.166 239.813 94.3335 237.501 95.9007 236.175C97.4679 234.848 99.8361 235.014 101.191 236.539C102.545 238.065 102.378 240.377 100.81 241.703Z" fill="#FDEBC6" stroke="#FDEBC6"/>
<path d="M92.3565 229.258C92.3565 229.258 87.6505 224.437 95.9823 219.184C109.372 210.743 126.453 207.845 139.986 207.843" stroke="#FDEBC6" stroke-width="8" stroke-linecap="round" stroke-linejoin="round"/>
<mask id="path-5-outside-1_2_263" maskUnits="userSpaceOnUse" x="143.116" y="100.015" width="287" height="290" fill="black">
<rect fill="white" x="143.116" y="100.015" width="287" height="290"/>
<path d="M158.998 297.827C151.579 263.621 151.116 258.642 151.116 244.569C151.116 230.495 156.789 219.723 163.635 203.001C170.482 186.279 193.775 157.537 193.775 157.537C204.383 141.535 225.158 128.51 245.708 119C268.726 108.348 289.355 109.024 304.795 109.023C360.703 109.023 355.602 132.423 352.82 150.176L389.915 163.443C404.446 169.76 417.17 179.211 420.004 195.207C422.837 211.204 420.942 228.284 420.004 235.909C420.004 235.909 417.273 264.487 414.491 280.074C411.709 295.662 402.195 315.158 392.234 328.57C392.234 328.57 365.803 371.437 340.724 377.932C315.644 384.427 302.382 379.835 286.513 374.468L215.105 350.653C181.317 339.225 166.417 332.034 158.998 297.827Z"/>
</mask>
<path d="M351.355 153.898C353.41 154.707 355.733 153.697 356.542 151.641C357.351 149.586 356.341 147.263 354.286 146.454L351.355 153.898ZM342.189 141.691C340.134 140.881 337.811 141.892 337.002 143.947C336.193 146.003 337.203 148.325 339.258 149.135L342.189 141.691ZM354.286 146.454L342.189 141.691L339.258 149.135L351.355 153.898L354.286 146.454ZM215.105 350.653L212.541 358.231C212.552 358.235 212.563 358.238 212.574 358.242L215.105 350.653ZM286.513 374.468L289.076 366.889C289.065 366.886 289.054 366.882 289.044 366.879L286.513 374.468ZM392.234 328.57L385.811 323.8C385.674 323.985 385.545 324.175 385.424 324.371L392.234 328.57ZM420.004 235.909L412.064 234.932C412.055 235.004 412.047 235.076 412.04 235.148L420.004 235.909ZM389.915 163.443L393.105 156.107C392.942 156.036 392.777 155.97 392.609 155.911L389.915 163.443ZM352.82 150.176L344.917 148.937C344.322 152.732 346.509 156.415 350.126 157.708L352.82 150.176ZM304.795 109.023L304.795 117.023L304.795 109.023ZM245.708 119L249.068 126.26L245.708 119ZM193.775 157.537L199.99 162.573C200.151 162.375 200.302 162.169 200.443 161.957L193.775 157.537ZM143.116 244.569C143.116 259.53 143.734 265.194 151.18 299.523L166.816 296.132C159.424 262.048 159.116 257.754 159.116 244.569H143.116ZM212.574 358.242L283.982 382.057L289.044 366.879L217.635 343.064L212.574 358.242ZM342.729 385.676C350.6 383.638 358.006 378.938 364.43 373.661C370.936 368.317 376.938 361.962 381.994 355.979C387.068 349.974 391.308 344.204 394.277 339.942C395.764 337.806 396.941 336.036 397.753 334.791C398.158 334.168 398.473 333.675 398.691 333.331C398.799 333.16 398.884 333.025 398.943 332.931C398.972 332.883 398.995 332.846 399.012 332.819C399.021 332.805 399.027 332.794 399.033 332.786C399.035 332.782 399.037 332.778 399.039 332.775C399.04 332.774 399.041 332.772 399.042 332.771C399.042 332.77 399.043 332.769 392.234 328.57C385.424 324.371 385.425 324.37 385.425 324.369C385.425 324.369 385.426 324.369 385.426 324.369C385.426 324.368 385.426 324.369 385.425 324.37C385.424 324.372 385.421 324.376 385.417 324.383C385.408 324.397 385.393 324.422 385.371 324.456C385.329 324.524 385.262 324.631 385.171 324.775C384.989 325.063 384.711 325.497 384.345 326.059C383.613 327.182 382.529 328.813 381.147 330.797C378.377 334.775 374.442 340.127 369.773 345.651C365.087 351.197 359.778 356.777 354.275 361.297C348.69 365.884 343.387 368.978 338.718 370.187L342.729 385.676ZM422.366 281.48C423.806 273.412 425.208 262.148 426.24 253.047C426.759 248.466 427.19 244.377 427.492 241.433C427.643 239.961 427.761 238.774 427.842 237.953C427.883 237.542 427.914 237.223 427.935 237.006C427.945 236.898 427.953 236.815 427.959 236.758C427.962 236.73 427.964 236.708 427.965 236.693C427.966 236.686 427.966 236.68 427.967 236.676C427.967 236.675 427.967 236.673 427.967 236.672C427.967 236.671 427.967 236.671 427.967 236.671C427.967 236.67 427.967 236.67 420.004 235.909C412.04 235.148 412.04 235.148 412.04 235.148C412.04 235.148 412.04 235.148 412.04 235.148C412.04 235.149 412.04 235.15 412.04 235.152C412.039 235.155 412.039 235.159 412.038 235.166C412.037 235.179 412.035 235.198 412.033 235.225C412.027 235.277 412.02 235.356 412.01 235.461C411.989 235.67 411.959 235.98 411.92 236.382C411.84 237.185 411.724 238.352 411.575 239.802C411.278 242.704 410.853 246.734 410.341 251.245C409.312 260.33 407.957 271.149 406.615 278.669L422.366 281.48ZM392.609 155.911L355.514 142.643L350.126 157.708L387.221 170.976L392.609 155.911ZM193.775 157.537C187.56 152.5 187.559 152.5 187.559 152.501C187.559 152.501 187.558 152.502 187.557 152.503C187.556 152.504 187.555 152.506 187.553 152.508C187.549 152.513 187.544 152.519 187.537 152.528C187.524 152.544 187.506 152.567 187.481 152.597C187.433 152.656 187.364 152.743 187.273 152.855C187.093 153.08 186.831 153.408 186.497 153.828C185.829 154.669 184.872 155.882 183.705 157.388C181.373 160.397 178.189 164.59 174.781 169.324C168.125 178.567 160.057 190.629 156.232 199.97L171.039 206.032C174.061 198.652 181.062 187.982 187.765 178.673C191.036 174.13 194.103 170.092 196.352 167.189C197.476 165.739 198.392 164.577 199.025 163.78C199.341 163.382 199.586 163.076 199.75 162.871C199.833 162.769 199.894 162.692 199.935 162.642C199.955 162.617 199.97 162.599 199.979 162.587C199.984 162.582 199.987 162.578 199.989 162.575C199.99 162.574 199.991 162.573 199.991 162.573C199.991 162.573 199.991 162.573 199.991 162.573C199.991 162.573 199.99 162.573 193.775 157.537ZM304.795 101.023C289.542 101.024 267.187 100.245 242.349 111.74L249.068 126.26C270.265 116.451 289.169 117.024 304.795 117.023L304.795 101.023ZM360.724 151.414C361.378 147.241 362.357 141.716 362.352 136.249C362.347 130.636 361.334 124.311 357.478 118.513C349.688 106.798 333.097 101.023 304.795 101.023L304.795 117.023C332.401 117.023 341.213 122.948 344.155 127.372C345.665 129.642 346.349 132.496 346.352 136.263C346.355 140.177 345.654 144.234 344.917 148.937L360.724 151.414ZM427.881 193.812C424.329 173.76 408.394 162.753 393.105 156.107L386.726 170.78C400.498 176.767 410.011 184.662 412.126 196.603L427.881 193.812ZM427.944 236.886C428.886 229.231 430.943 211.096 427.881 193.812L412.126 196.603C414.732 211.311 412.998 227.338 412.064 234.932L427.944 236.886ZM398.656 333.34C409.152 319.209 419.314 298.584 422.366 281.48L406.615 278.669C404.104 292.741 395.239 311.107 385.811 323.8L398.656 333.34ZM283.949 382.046C291.767 384.69 299.824 387.47 309.216 388.592C318.764 389.732 329.357 389.139 342.729 385.676L338.718 370.187C327.011 373.219 318.433 373.578 311.113 372.704C303.636 371.812 297.128 369.613 289.076 366.889L283.949 382.046ZM156.232 199.97C149.772 215.746 143.116 228.479 143.116 244.569H159.116C159.116 232.512 163.805 223.7 171.039 206.032L156.232 199.97ZM151.18 299.523C155.112 317.65 161.316 329.862 171.999 338.892C182.217 347.529 195.862 352.59 212.541 358.231L217.668 343.075C200.559 337.288 189.861 333.04 182.328 326.672C175.259 320.698 170.304 312.211 166.816 296.132L151.18 299.523ZM242.349 111.74C221.536 121.371 199.007 135.166 187.107 153.116L200.443 161.957C209.759 147.905 228.78 135.649 249.068 126.26L242.349 111.74Z" fill="#222325" mask="url(#path-5-outside-1_2_263)"/>
<path d="M351.355 153.898C353.41 154.707 355.733 153.697 356.542 151.641C357.351 149.586 356.341 147.263 354.286 146.454L351.355 153.898ZM342.189 141.691C340.134 140.881 337.811 141.892 337.002 143.947C336.193 146.003 337.203 148.325 339.258 149.135L342.189 141.691ZM354.286 146.454L342.189 141.691L339.258 149.135L351.355 153.898L354.286 146.454ZM215.105 350.653L212.541 358.231C212.552 358.235 212.563 358.238 212.574 358.242L215.105 350.653ZM286.513 374.468L289.076 366.889C289.065 366.886 289.054 366.882 289.044 366.879L286.513 374.468ZM392.234 328.57L385.811 323.8C385.674 323.985 385.545 324.175 385.424 324.371L392.234 328.57ZM420.004 235.909L412.064 234.932C412.055 235.004 412.047 235.076 412.04 235.148L420.004 235.909ZM389.915 163.443L393.105 156.107C392.942 156.036 392.777 155.97 392.609 155.911L389.915 163.443ZM352.82 150.176L344.917 148.937C344.322 152.732 346.509 156.415 350.126 157.708L352.82 150.176ZM304.795 109.023L304.795 117.023L304.795 109.023ZM245.708 119L249.068 126.26L245.708 119ZM193.775 157.537L199.99 162.573C200.151 162.375 200.302 162.169 200.443 161.957L193.775 157.537ZM143.116 244.569C143.116 259.53 143.734 265.194 151.18 299.523L166.816 296.132C159.424 262.048 159.116 257.754 159.116 244.569H143.116ZM212.574 358.242L283.982 382.057L289.044 366.879L217.635 343.064L212.574 358.242ZM342.729 385.676C350.6 383.638 358.006 378.938 364.43 373.661C370.936 368.317 376.938 361.962 381.994 355.979C387.068 349.974 391.308 344.204 394.277 339.942C395.764 337.806 396.941 336.036 397.753 334.791C398.158 334.168 398.473 333.675 398.691 333.331C398.799 333.16 398.884 333.025 398.943 332.931C398.972 332.883 398.995 332.846 399.012 332.819C399.021 332.805 399.027 332.794 399.033 332.786C399.035 332.782 399.037 332.778 399.039 332.775C399.04 332.774 399.041 332.772 399.042 332.771C399.042 332.77 399.043 332.769 392.234 328.57C385.424 324.371 385.425 324.37 385.425 324.369C385.425 324.369 385.426 324.369 385.426 324.369C385.426 324.368 385.426 324.369 385.425 324.37C385.424 324.372 385.421 324.376 385.417 324.383C385.408 324.397 385.393 324.422 385.371 324.456C385.329 324.524 385.262 324.631 385.171 324.775C384.989 325.063 384.711 325.497 384.345 326.059C383.613 327.182 382.529 328.813 381.147 330.797C378.377 334.775 374.442 340.127 369.773 345.651C365.087 351.197 359.778 356.777 354.275 361.297C348.69 365.884 343.387 368.978 338.718 370.187L342.729 385.676ZM422.366 281.48C423.806 273.412 425.208 262.148 426.24 253.047C426.759 248.466 427.19 244.377 427.492 241.433C427.643 239.961 427.761 238.774 427.842 237.953C427.883 237.542 427.914 237.223 427.935 237.006C427.945 236.898 427.953 236.815 427.959 236.758C427.962 236.73 427.964 236.708 427.965 236.693C427.966 236.686 427.966 236.68 427.967 236.676C427.967 236.675 427.967 236.673 427.967 236.672C427.967 236.671 427.967 236.671 427.967 236.671C427.967 236.67 427.967 236.67 420.004 235.909C412.04 235.148 412.04 235.148 412.04 235.148C412.04 235.148 412.04 235.148 412.04 235.148C412.04 235.149 412.04 235.15 412.04 235.152C412.039 235.155 412.039 235.159 412.038 235.166C412.037 235.179 412.035 235.198 412.033 235.225C412.027 235.277 412.02 235.356 412.01 235.461C411.989 235.67 411.959 235.98 411.92 236.382C411.84 237.185 411.724 238.352 411.575 239.802C411.278 242.704 410.853 246.734 410.341 251.245C409.312 260.33 407.957 271.149 406.615 278.669L422.366 281.48ZM392.609 155.911L355.514 142.643L350.126 157.708L387.221 170.976L392.609 155.911ZM193.775 157.537C187.56 152.5 187.559 152.5 187.559 152.501C187.559 152.501 187.558 152.502 187.557 152.503C187.556 152.504 187.555 152.506 187.553 152.508C187.549 152.513 187.544 152.519 187.537 152.528C187.524 152.544 187.506 152.567 187.481 152.597C187.433 152.656 187.364 152.743 187.273 152.855C187.093 153.08 186.831 153.408 186.497 153.828C185.829 154.669 184.872 155.882 183.705 157.388C181.373 160.397 178.189 164.59 174.781 169.324C168.125 178.567 160.057 190.629 156.232 199.97L171.039 206.032C174.061 198.652 181.062 187.982 187.765 178.673C191.036 174.13 194.103 170.092 196.352 167.189C197.476 165.739 198.392 164.577 199.025 163.78C199.341 163.382 199.586 163.076 199.75 162.871C199.833 162.769 199.894 162.692 199.935 162.642C199.955 162.617 199.97 162.599 199.979 162.587C199.984 162.582 199.987 162.578 199.989 162.575C199.99 162.574 199.991 162.573 199.991 162.573C199.991 162.573 199.991 162.573 199.991 162.573C199.991 162.573 199.99 162.573 193.775 157.537ZM304.795 101.023C289.542 101.024 267.187 100.245 242.349 111.74L249.068 126.26C270.265 116.451 289.169 117.024 304.795 117.023L304.795 101.023ZM360.724 151.414C361.378 147.241 362.357 141.716 362.352 136.249C362.347 130.636 361.334 124.311 357.478 118.513C349.688 106.798 333.097 101.023 304.795 101.023L304.795 117.023C332.401 117.023 341.213 122.948 344.155 127.372C345.665 129.642 346.349 132.496 346.352 136.263C346.355 140.177 345.654 144.234 344.917 148.937L360.724 151.414ZM427.881 193.812C424.329 173.76 408.394 162.753 393.105 156.107L386.726 170.78C400.498 176.767 410.011 184.662 412.126 196.603L427.881 193.812ZM427.944 236.886C428.886 229.231 430.943 211.096 427.881 193.812L412.126 196.603C414.732 211.311 412.998 227.338 412.064 234.932L427.944 236.886ZM398.656 333.34C409.152 319.209 419.314 298.584 422.366 281.48L406.615 278.669C404.104 292.741 395.239 311.107 385.811 323.8L398.656 333.34ZM283.949 382.046C291.767 384.69 299.824 387.47 309.216 388.592C318.764 389.732 329.357 389.139 342.729 385.676L338.718 370.187C327.011 373.219 318.433 373.578 311.113 372.704C303.636 371.812 297.128 369.613 289.076 366.889L283.949 382.046ZM156.232 199.97C149.772 215.746 143.116 228.479 143.116 244.569H159.116C159.116 232.512 163.805 223.7 171.039 206.032L156.232 199.97ZM151.18 299.523C155.112 317.65 161.316 329.862 171.999 338.892C182.217 347.529 195.862 352.59 212.541 358.231L217.668 343.075C200.559 337.288 189.861 333.04 182.328 326.672C175.259 320.698 170.304 312.211 166.816 296.132L151.18 299.523ZM242.349 111.74C221.536 121.371 199.007 135.166 187.107 153.116L200.443 161.957C209.759 147.905 228.78 135.649 249.068 126.26L242.349 111.74Z" fill="black" fill-opacity="0.2" mask="url(#path-5-outside-1_2_263)"/>
<mask id="mask0_2_263" style="mask-type:alpha" maskUnits="userSpaceOnUse" x="151" y="109" width="271" height="273">
<path d="M158.998 297.827C151.579 263.621 151.116 258.642 151.116 244.569C151.116 230.495 156.789 219.723 163.635 203.001C170.482 186.279 193.775 157.537 193.775 157.537C204.383 141.535 225.158 128.51 245.708 119C268.726 108.348 289.355 109.024 304.795 109.023C360.703 109.023 355.602 132.423 352.82 150.176L389.915 163.443C404.446 169.76 417.17 179.211 420.004 195.207C422.837 211.204 420.942 228.284 420.004 235.909C420.004 235.909 417.273 264.487 414.491 280.074C411.709 295.662 402.195 315.158 392.234 328.57C392.234 328.57 365.803 371.437 340.724 377.932C315.644 384.427 302.382 379.835 286.513 374.468L215.105 350.653C181.317 339.225 166.417 332.034 158.998 297.827Z" fill="#D9D9D9"/>
</mask>
<g mask="url(#mask0_2_263)">
<g filter="url(#filter0_i_2_263)">
<path d="M158.998 297.827C151.579 263.621 151.116 258.642 151.116 244.569C151.116 230.495 156.789 219.723 163.635 203.001C170.482 186.279 193.775 157.537 193.775 157.537C204.383 141.535 225.158 128.51 245.708 119C268.726 108.348 289.355 109.024 304.795 109.023C360.703 109.023 355.602 132.423 352.82 150.176L389.915 163.443C404.446 169.76 417.17 179.211 420.004 195.207C422.837 211.204 420.942 228.284 420.004 235.909C420.004 235.909 417.273 264.487 414.491 280.074C411.709 295.662 402.195 315.158 392.234 328.57C392.234 328.57 365.803 371.437 340.724 377.932C315.644 384.427 302.382 379.835 286.513 374.468L215.105 350.653C181.317 339.225 166.417 332.034 158.998 297.827Z" fill="#C9CEF4"/>
</g>
<g filter="url(#filter1_i_2_263)">
<path d="M352.01 349.314C335.925 361.611 323.287 365.395 295.139 359.719C285.182 357.827 257.226 351.3 225.056 340.327C199.19 331.504 185.456 324.129 179.674 320.02C177.627 318.566 176.509 316.501 176.004 314.314C175.113 310.453 173.679 303.714 172.781 296.814C171.058 283.571 206.674 239.111 218.737 229.179C227.626 221.86 240.701 214.7 257.226 209.916C280.198 203.267 308.93 205.826 319.344 207.631C325.027 208.616 327.883 213.048 327.883 217.829V224.441C327.883 227.53 329.005 230.683 332.34 232.099C343.155 236.69 367.658 238.529 380.733 248.098C396.243 259.449 395.668 269.381 393.37 287.354C391.073 305.327 368.095 337.017 352.01 349.314Z" fill="#707EFF"/>
</g>
<ellipse rx="7.95976" ry="8.04278" transform="matrix(0.68035 0.732888 -0.777188 0.629268 291.168 123.638)" fill="white"/>
<path d="M262.652 128.686C262.652 128.686 234.76 128.687 207.605 168.19" stroke="white" stroke-width="13" stroke-linecap="round" stroke-linejoin="round"/>
<path d="M340.574 138.678C338.456 138.047 336.229 139.252 335.598 141.369C334.967 143.486 336.172 145.714 338.289 146.345L340.574 138.678ZM355.282 151.409C357.399 152.04 359.627 150.836 360.258 148.718C360.889 146.601 359.684 144.374 357.567 143.743L355.282 151.409ZM338.289 146.345L355.282 151.409L357.567 143.743L340.574 138.678L338.289 146.345Z" fill="#222325"/>
<path d="M340.574 138.678C338.456 138.047 336.229 139.252 335.598 141.369C334.967 143.486 336.172 145.714 338.289 146.345L340.574 138.678ZM355.282 151.409C357.399 152.04 359.627 150.836 360.258 148.718C360.889 146.601 359.684 144.374 357.567 143.743L355.282 151.409ZM338.289 146.345L355.282 151.409L357.567 143.743L340.574 138.678L338.289 146.345Z" fill="black" fill-opacity="0.2"/>
<path d="M174.681 255.012C209.51 261.581 275.79 285.326 302.036 294.988C309.453 297.719 316.93 301.016 321.575 307.408C324.887 311.966 327.728 318.283 326.894 326.048M326.904 341.713L326.91 352.211" stroke="#222325" stroke-width="8" stroke-linecap="round" stroke-linejoin="round"/>
<path d="M174.681 255.012C209.51 261.581 275.79 285.326 302.036 294.988C309.453 297.719 316.93 301.016 321.575 307.408C324.887 311.966 327.728 318.283 326.894 326.048M326.904 341.713L326.91 352.211" stroke="black" stroke-opacity="0.2" stroke-width="8" stroke-linecap="round" stroke-linejoin="round"/>
</g>
<path d="M256.728 155.26L268.577 181.12M279.253 163.06L246.051 173.321" stroke="#222325" stroke-width="8" stroke-linecap="round" stroke-linejoin="round"/>
<path d="M256.728 155.26L268.577 181.12M279.253 163.06L246.051 173.321" stroke="black" stroke-opacity="0.2" stroke-width="8" stroke-linecap="round" stroke-linejoin="round"/>
<path d="M315.919 168.19L330.441 199.884M343.526 177.749L302.834 190.325" stroke="#222325" stroke-width="8" stroke-linecap="round" stroke-linejoin="round"/>
<path d="M315.919 168.19L330.441 199.884M343.526 177.749L302.834 190.325" stroke="black" stroke-opacity="0.2" stroke-width="8" stroke-linecap="round" stroke-linejoin="round"/>
<g filter="url(#filter2_i_2_263)">
<path d="M219.976 315.737C219.976 299.512 203.586 295.02 192.103 299.512C192.103 299.512 169.739 315.71 161.996 330.065C150.887 350.662 155.713 394.851 155.713 394.851C155.713 394.851 164.57 400.437 172.105 401.312C192.103 403.634 195.348 400.382 199.604 394.851C200.762 382.326 193.776 372.329 199.604 353.534C204.462 337.867 219.976 315.737 219.976 315.737Z" fill="#707EFF"/>
</g>
<path d="M192.103 299.512L190.646 295.786C190.33 295.91 190.031 296.073 189.756 296.272L192.103 299.512ZM219.976 315.737L223.251 318.033C223.723 317.36 223.976 316.559 223.976 315.737H219.976ZM199.604 353.534L195.784 352.349H195.784L199.604 353.534ZM199.604 394.851L202.774 397.291C203.236 396.691 203.518 395.973 203.587 395.219L199.604 394.851ZM155.713 394.851L151.737 395.286C151.87 396.498 152.548 397.584 153.58 398.235L155.713 394.851ZM161.996 330.065L158.476 328.166H158.476L161.996 330.065ZM172.105 401.312L171.644 405.285H171.644L172.105 401.312ZM193.56 303.237C198.385 301.349 204.206 301.398 208.65 303.478C212.841 305.44 215.976 309.246 215.976 315.737H223.976C223.976 306.002 218.916 299.45 212.041 296.233C205.419 293.133 197.304 293.182 190.646 295.786L193.56 303.237ZM219.976 315.737C216.701 313.441 216.7 313.441 216.7 313.442C216.7 313.442 216.699 313.443 216.699 313.443C216.698 313.444 216.697 313.446 216.696 313.447C216.694 313.451 216.69 313.456 216.686 313.462C216.677 313.474 216.665 313.492 216.649 313.515C216.617 313.56 216.571 313.627 216.511 313.713C216.392 313.886 216.218 314.139 215.995 314.464C215.551 315.115 214.915 316.058 214.137 317.237C212.583 319.592 210.459 322.899 208.18 326.705C203.671 334.234 198.363 344.029 195.784 352.349L203.425 354.718C205.703 347.372 210.581 338.268 215.044 330.815C217.25 327.131 219.308 323.926 220.815 321.642C221.567 320.502 222.181 319.593 222.604 318.973C222.816 318.662 222.98 318.424 223.09 318.265C223.145 318.186 223.186 318.126 223.213 318.087C223.227 318.068 223.237 318.053 223.243 318.044C223.246 318.04 223.249 318.037 223.25 318.035C223.251 318.034 223.251 318.033 223.251 318.033C223.251 318.033 223.251 318.033 223.251 318.033C223.251 318.033 223.251 318.033 219.976 315.737ZM195.784 352.349C192.646 362.469 192.965 370.291 193.889 377.083C194.842 384.079 196.144 388.827 195.621 394.483L203.587 395.219C204.222 388.35 202.61 381.836 201.816 376.004C200.995 369.968 200.735 363.393 203.425 354.718L195.784 352.349ZM155.713 394.851C159.69 394.417 159.69 394.417 159.69 394.418C159.69 394.417 159.69 394.417 159.69 394.417C159.69 394.417 159.69 394.415 159.689 394.413C159.689 394.41 159.688 394.403 159.687 394.394C159.685 394.376 159.682 394.347 159.678 394.309C159.67 394.231 159.658 394.112 159.642 393.955C159.611 393.64 159.566 393.169 159.512 392.56C159.405 391.342 159.262 389.57 159.125 387.375C158.851 382.982 158.599 376.92 158.688 370.235C158.87 356.616 160.472 341.317 165.517 331.964L158.476 328.166C152.411 339.409 150.871 356.503 150.689 370.128C150.596 377.066 150.857 383.338 151.141 387.874C151.282 390.144 151.43 391.985 151.543 393.264C151.6 393.904 151.648 394.403 151.682 394.745C151.699 394.916 151.712 395.048 151.722 395.139C151.726 395.184 151.73 395.22 151.733 395.244C151.734 395.256 151.735 395.266 151.736 395.273C151.736 395.276 151.736 395.279 151.737 395.281C151.737 395.282 151.737 395.283 151.737 395.284C151.737 395.285 151.737 395.286 155.713 394.851ZM165.517 331.964C169.032 325.446 176.096 318.2 182.614 312.392C185.818 309.537 188.789 307.117 190.959 305.412C192.043 304.56 192.924 303.889 193.53 303.433C193.833 303.205 194.067 303.032 194.223 302.917C194.301 302.859 194.36 302.816 194.398 302.788C194.417 302.774 194.431 302.764 194.44 302.758C194.444 302.755 194.447 302.753 194.448 302.752C194.449 302.751 194.45 302.751 194.45 302.751C194.45 302.751 194.45 302.751 194.45 302.751C194.45 302.751 194.449 302.751 192.103 299.512C189.756 296.272 189.756 296.272 189.755 296.273C189.755 296.273 189.754 296.274 189.754 296.274C189.753 296.275 189.751 296.276 189.749 296.277C189.745 296.28 189.74 296.284 189.734 296.289C189.721 296.298 189.702 296.311 189.679 296.329C189.632 296.363 189.564 296.413 189.476 296.477C189.301 296.606 189.047 296.795 188.724 297.038C188.076 297.524 187.15 298.231 186.016 299.122C183.751 300.902 180.647 303.429 177.292 306.419C170.693 312.299 162.703 320.328 158.476 328.166L165.517 331.964ZM196.434 392.412C194.409 395.044 193.167 396.386 190.553 397.212C187.569 398.155 182.481 398.49 172.567 397.339L171.644 405.285C181.727 406.456 188.261 406.326 192.963 404.84C198.035 403.238 200.544 400.189 202.774 397.291L196.434 392.412ZM172.567 397.339C169.462 396.978 165.841 395.591 162.806 394.143C161.33 393.439 160.073 392.759 159.187 392.258C158.746 392.008 158.4 391.803 158.17 391.665C158.055 391.596 157.969 391.543 157.914 391.509C157.887 391.492 157.867 391.48 157.856 391.473C157.85 391.47 157.847 391.468 157.845 391.467C157.845 391.466 157.844 391.466 157.845 391.466C157.845 391.466 157.845 391.467 157.846 391.467C157.846 391.467 157.846 391.467 157.846 391.467C157.847 391.468 157.847 391.468 155.713 394.851C153.58 398.235 153.58 398.235 153.581 398.235C153.581 398.235 153.582 398.236 153.582 398.236C153.583 398.237 153.584 398.237 153.585 398.238C153.588 398.24 153.591 398.242 153.594 398.244C153.602 398.248 153.611 398.254 153.622 398.261C153.645 398.275 153.676 398.295 153.716 398.319C153.794 398.368 153.906 398.436 154.048 398.521C154.331 398.691 154.736 398.93 155.243 399.218C156.253 399.79 157.681 400.562 159.361 401.364C162.638 402.927 167.213 404.771 171.644 405.285L172.567 397.339Z" fill="#222325"/>
<path d="M192.103 299.512L190.646 295.786C190.33 295.91 190.031 296.073 189.756 296.272L192.103 299.512ZM219.976 315.737L223.251 318.033C223.723 317.36 223.976 316.559 223.976 315.737H219.976ZM199.604 353.534L195.784 352.349H195.784L199.604 353.534ZM199.604 394.851L202.774 397.291C203.236 396.691 203.518 395.973 203.587 395.219L199.604 394.851ZM155.713 394.851L151.737 395.286C151.87 396.498 152.548 397.584 153.58 398.235L155.713 394.851ZM161.996 330.065L158.476 328.166H158.476L161.996 330.065ZM172.105 401.312L171.644 405.285H171.644L172.105 401.312ZM193.56 303.237C198.385 301.349 204.206 301.398 208.65 303.478C212.841 305.44 215.976 309.246 215.976 315.737H223.976C223.976 306.002 218.916 299.45 212.041 296.233C205.419 293.133 197.304 293.182 190.646 295.786L193.56 303.237ZM219.976 315.737C216.701 313.441 216.7 313.441 216.7 313.442C216.7 313.442 216.699 313.443 216.699 313.443C216.698 313.444 216.697 313.446 216.696 313.447C216.694 313.451 216.69 313.456 216.686 313.462C216.677 313.474 216.665 313.492 216.649 313.515C216.617 313.56 216.571 313.627 216.511 313.713C216.392 313.886 216.218 314.139 215.995 314.464C215.551 315.115 214.915 316.058 214.137 317.237C212.583 319.592 210.459 322.899 208.18 326.705C203.671 334.234 198.363 344.029 195.784 352.349L203.425 354.718C205.703 347.372 210.581 338.268 215.044 330.815C217.25 327.131 219.308 323.926 220.815 321.642C221.567 320.502 222.181 319.593 222.604 318.973C222.816 318.662 222.98 318.424 223.09 318.265C223.145 318.186 223.186 318.126 223.213 318.087C223.227 318.068 223.237 318.053 223.243 318.044C223.246 318.04 223.249 318.037 223.25 318.035C223.251 318.034 223.251 318.033 223.251 318.033C223.251 318.033 223.251 318.033 223.251 318.033C223.251 318.033 223.251 318.033 219.976 315.737ZM195.784 352.349C192.646 362.469 192.965 370.291 193.889 377.083C194.842 384.079 196.144 388.827 195.621 394.483L203.587 395.219C204.222 388.35 202.61 381.836 201.816 376.004C200.995 369.968 200.735 363.393 203.425 354.718L195.784 352.349ZM155.713 394.851C159.69 394.417 159.69 394.417 159.69 394.418C159.69 394.417 159.69 394.417 159.69 394.417C159.69 394.417 159.69 394.415 159.689 394.413C159.689 394.41 159.688 394.403 159.687 394.394C159.685 394.376 159.682 394.347 159.678 394.309C159.67 394.231 159.658 394.112 159.642 393.955C159.611 393.64 159.566 393.169 159.512 392.56C159.405 391.342 159.262 389.57 159.125 387.375C158.851 382.982 158.599 376.92 158.688 370.235C158.87 356.616 160.472 341.317 165.517 331.964L158.476 328.166C152.411 339.409 150.871 356.503 150.689 370.128C150.596 377.066 150.857 383.338 151.141 387.874C151.282 390.144 151.43 391.985 151.543 393.264C151.6 393.904 151.648 394.403 151.682 394.745C151.699 394.916 151.712 395.048 151.722 395.139C151.726 395.184 151.73 395.22 151.733 395.244C151.734 395.256 151.735 395.266 151.736 395.273C151.736 395.276 151.736 395.279 151.737 395.281C151.737 395.282 151.737 395.283 151.737 395.284C151.737 395.285 151.737 395.286 155.713 394.851ZM165.517 331.964C169.032 325.446 176.096 318.2 182.614 312.392C185.818 309.537 188.789 307.117 190.959 305.412C192.043 304.56 192.924 303.889 193.53 303.433C193.833 303.205 194.067 303.032 194.223 302.917C194.301 302.859 194.36 302.816 194.398 302.788C194.417 302.774 194.431 302.764 194.44 302.758C194.444 302.755 194.447 302.753 194.448 302.752C194.449 302.751 194.45 302.751 194.45 302.751C194.45 302.751 194.45 302.751 194.45 302.751C194.45 302.751 194.449 302.751 192.103 299.512C189.756 296.272 189.756 296.272 189.755 296.273C189.755 296.273 189.754 296.274 189.754 296.274C189.753 296.275 189.751 296.276 189.749 296.277C189.745 296.28 189.74 296.284 189.734 296.289C189.721 296.298 189.702 296.311 189.679 296.329C189.632 296.363 189.564 296.413 189.476 296.477C189.301 296.606 189.047 296.795 188.724 297.038C188.076 297.524 187.15 298.231 186.016 299.122C183.751 300.902 180.647 303.429 177.292 306.419C170.693 312.299 162.703 320.328 158.476 328.166L165.517 331.964ZM196.434 392.412C194.409 395.044 193.167 396.386 190.553 397.212C187.569 398.155 182.481 398.49 172.567 397.339L171.644 405.285C181.727 406.456 188.261 406.326 192.963 404.84C198.035 403.238 200.544 400.189 202.774 397.291L196.434 392.412ZM172.567 397.339C169.462 396.978 165.841 395.591 162.806 394.143C161.33 393.439 160.073 392.759 159.187 392.258C158.746 392.008 158.4 391.803 158.17 391.665C158.055 391.596 157.969 391.543 157.914 391.509C157.887 391.492 157.867 391.48 157.856 391.473C157.85 391.47 157.847 391.468 157.845 391.467C157.845 391.466 157.844 391.466 157.845 391.466C157.845 391.466 157.845 391.467 157.846 391.467C157.846 391.467 157.846 391.467 157.846 391.467C157.847 391.468 157.847 391.468 155.713 394.851C153.58 398.235 153.58 398.235 153.581 398.235C153.581 398.235 153.582 398.236 153.582 398.236C153.583 398.237 153.584 398.237 153.585 398.238C153.588 398.24 153.591 398.242 153.594 398.244C153.602 398.248 153.611 398.254 153.622 398.261C153.645 398.275 153.676 398.295 153.716 398.319C153.794 398.368 153.906 398.436 154.048 398.521C154.331 398.691 154.736 398.93 155.243 399.218C156.253 399.79 157.681 400.562 159.361 401.364C162.638 402.927 167.213 404.771 171.644 405.285L172.567 397.339Z" fill="black" fill-opacity="0.2"/>
<g filter="url(#filter3_i_2_263)">
<path d="M275.723 334.497C273.136 318.287 255.505 316.066 247.343 320.3C247.343 320.3 224.743 336.527 217.635 355.205C210.528 373.883 212.17 410.865 212.17 410.865C212.17 410.865 222.311 416.819 231.215 417.712C250.125 419.608 257.74 413.082 257.74 413.082C260.703 400.45 253.397 390.834 257.74 373.08C262.082 355.326 275.723 334.497 275.723 334.497Z" fill="#707EFF"/>
</g>
<path d="M247.343 320.3L245.501 316.75C245.331 316.838 245.167 316.939 245.011 317.051L247.343 320.3ZM275.723 334.497L279.07 336.689C279.615 335.856 279.83 334.85 279.673 333.867L275.723 334.497ZM257.74 373.08L261.625 374.031L257.74 373.08ZM257.74 413.082L260.343 416.119C260.988 415.566 261.44 414.822 261.634 413.995L257.74 413.082ZM212.17 410.865L208.174 411.043C208.235 412.397 208.976 413.628 210.145 414.315L212.17 410.865ZM217.635 355.205L213.897 353.782H213.897L217.635 355.205ZM231.215 417.712L231.614 413.732L231.215 417.712ZM249.186 323.851C252.176 322.3 257.458 321.779 262.28 323.499C266.844 325.128 270.74 328.654 271.773 335.128L279.673 333.867C278.119 324.131 271.907 318.441 264.968 315.965C258.287 313.581 250.673 314.066 245.501 316.75L249.186 323.851ZM275.723 334.497C272.377 332.306 272.377 332.306 272.376 332.307C272.376 332.307 272.376 332.308 272.375 332.309C272.375 332.31 272.374 332.311 272.372 332.313C272.37 332.317 272.367 332.321 272.363 332.328C272.355 332.34 272.344 332.357 272.329 332.379C272.3 332.424 272.259 332.488 272.205 332.571C272.098 332.737 271.944 332.979 271.746 333.292C271.352 333.916 270.788 334.822 270.1 335.962C268.724 338.24 266.846 341.462 264.829 345.252C260.827 352.77 256.145 362.765 253.854 372.13L261.625 374.031C263.677 365.642 267.987 356.345 271.891 349.011C273.827 345.374 275.63 342.279 276.948 340.097C277.607 339.007 278.142 338.146 278.511 337.563C278.695 337.271 278.838 337.048 278.933 336.9C278.98 336.827 279.016 336.772 279.039 336.736C279.05 336.718 279.059 336.706 279.064 336.698C279.066 336.694 279.068 336.691 279.069 336.69C279.07 336.689 279.07 336.688 279.07 336.688C279.07 336.688 279.07 336.688 279.07 336.688C279.07 336.689 279.07 336.689 275.723 334.497ZM253.854 372.13C251.499 381.756 252.326 389.206 253.265 395.585C254.217 402.047 255.115 406.755 253.845 412.168L261.634 413.995C263.327 406.777 262.055 400.361 261.18 394.419C260.292 388.393 259.637 382.158 261.625 374.031L253.854 372.13ZM212.17 410.865C216.166 410.688 216.166 410.688 216.166 410.688C216.166 410.688 216.166 410.688 216.166 410.688C216.166 410.687 216.166 410.686 216.166 410.684C216.166 410.681 216.166 410.676 216.166 410.668C216.165 410.652 216.164 410.628 216.163 410.595C216.16 410.529 216.156 410.429 216.151 410.296C216.141 410.03 216.127 409.634 216.112 409.121C216.082 408.095 216.046 406.602 216.025 404.749C215.982 401.041 215.999 395.907 216.234 390.204C216.711 378.637 218.072 365.303 221.374 356.628L213.897 353.782C210.09 363.785 208.719 378.281 208.241 389.875C207.998 395.752 207.981 401.031 208.025 404.841C208.047 406.747 208.084 408.289 208.115 409.358C208.131 409.893 208.146 410.31 208.156 410.595C208.162 410.738 208.166 410.847 208.169 410.923C208.171 410.96 208.172 410.989 208.173 411.009C208.173 411.019 208.174 411.027 208.174 411.033C208.174 411.036 208.174 411.038 208.174 411.04C208.174 411.04 208.174 411.041 208.174 411.042C208.174 411.042 208.174 411.043 212.17 410.865ZM221.374 356.628C224.615 348.111 231.539 339.877 237.951 333.609C241.114 330.517 244.066 327.986 246.225 326.231C247.302 325.355 248.178 324.675 248.779 324.219C249.079 323.991 249.31 323.819 249.463 323.706C249.539 323.649 249.596 323.608 249.632 323.582C249.65 323.569 249.663 323.559 249.67 323.554C249.674 323.551 249.676 323.55 249.677 323.549C249.678 323.548 249.678 323.548 249.678 323.548C249.678 323.548 249.677 323.549 249.677 323.549C249.677 323.549 249.676 323.55 247.343 320.3C245.011 317.051 245.01 317.052 245.009 317.052C245.009 317.052 245.008 317.053 245.007 317.054C245.005 317.055 245.004 317.056 245.001 317.058C244.997 317.061 244.991 317.065 244.984 317.07C244.97 317.081 244.95 317.095 244.925 317.113C244.875 317.149 244.804 317.201 244.713 317.268C244.531 317.402 244.27 317.597 243.938 317.849C243.275 318.353 242.33 319.087 241.178 320.024C238.876 321.895 235.734 324.589 232.359 327.888C225.694 334.403 217.764 343.621 213.897 353.782L221.374 356.628ZM257.74 413.082C255.136 410.045 255.138 410.043 255.14 410.041C255.141 410.041 255.143 410.039 255.144 410.038C255.147 410.036 255.149 410.034 255.151 410.032C255.156 410.028 255.16 410.025 255.164 410.022C255.171 410.015 255.177 410.011 255.18 410.008C255.188 410.001 255.188 410.001 255.182 410.007C255.168 410.017 255.126 410.05 255.054 410.101C254.909 410.204 254.646 410.382 254.256 410.607C253.477 411.056 252.187 411.698 250.326 412.306C246.618 413.518 240.548 414.628 231.614 413.732L230.816 421.692C240.792 422.693 247.984 421.488 252.811 419.91C255.218 419.124 257.013 418.252 258.253 417.537C258.872 417.18 259.351 416.862 259.697 416.616C259.87 416.492 260.01 416.387 260.117 416.303C260.171 416.261 260.216 416.224 260.254 416.193C260.273 416.178 260.289 416.164 260.304 416.151C260.312 416.145 260.318 416.139 260.325 416.134C260.328 416.131 260.331 416.129 260.334 416.126C260.336 416.125 260.338 416.123 260.338 416.122C260.341 416.121 260.343 416.119 257.74 413.082ZM231.614 413.732C227.783 413.348 223.475 411.832 219.96 410.291C218.239 409.536 216.779 408.806 215.753 408.268C215.242 407.999 214.841 407.78 214.574 407.631C214.44 407.556 214.34 407.499 214.276 407.462C214.244 407.444 214.221 407.431 214.208 407.423C214.201 407.419 214.196 407.416 214.194 407.415C214.193 407.415 214.193 407.414 214.193 407.415C214.193 407.415 214.194 407.415 214.194 407.415C214.194 407.415 214.195 407.415 214.195 407.415C214.195 407.416 214.196 407.416 212.17 410.865C210.145 414.315 210.146 414.315 210.146 414.315C210.147 414.316 210.147 414.316 210.148 414.316C210.149 414.317 210.15 414.318 210.151 414.318C210.154 414.32 210.157 414.322 210.161 414.324C210.169 414.329 210.179 414.335 210.192 414.342C210.217 414.357 210.253 414.377 210.297 414.403C210.386 414.454 210.512 414.525 210.673 414.615C210.995 414.795 211.457 415.048 212.035 415.351C213.189 415.957 214.82 416.772 216.747 417.617C220.529 419.276 225.743 421.183 230.816 421.692L231.614 413.732Z" fill="#222325"/>
<path d="M247.343 320.3L245.501 316.75C245.331 316.838 245.167 316.939 245.011 317.051L247.343 320.3ZM275.723 334.497L279.07 336.689C279.615 335.856 279.83 334.85 279.673 333.867L275.723 334.497ZM257.74 373.08L261.625 374.031L257.74 373.08ZM257.74 413.082L260.343 416.119C260.988 415.566 261.44 414.822 261.634 413.995L257.74 413.082ZM212.17 410.865L208.174 411.043C208.235 412.397 208.976 413.628 210.145 414.315L212.17 410.865ZM217.635 355.205L213.897 353.782H213.897L217.635 355.205ZM231.215 417.712L231.614 413.732L231.215 417.712ZM249.186 323.851C252.176 322.3 257.458 321.779 262.28 323.499C266.844 325.128 270.74 328.654 271.773 335.128L279.673 333.867C278.119 324.131 271.907 318.441 264.968 315.965C258.287 313.581 250.673 314.066 245.501 316.75L249.186 323.851ZM275.723 334.497C272.377 332.306 272.377 332.306 272.376 332.307C272.376 332.307 272.376 332.308 272.375 332.309C272.375 332.31 272.374 332.311 272.372 332.313C272.37 332.317 272.367 332.321 272.363 332.328C272.355 332.34 272.344 332.357 272.329 332.379C272.3 332.424 272.259 332.488 272.205 332.571C272.098 332.737 271.944 332.979 271.746 333.292C271.352 333.916 270.788 334.822 270.1 335.962C268.724 338.24 266.846 341.462 264.829 345.252C260.827 352.77 256.145 362.765 253.854 372.13L261.625 374.031C263.677 365.642 267.987 356.345 271.891 349.011C273.827 345.374 275.63 342.279 276.948 340.097C277.607 339.007 278.142 338.146 278.511 337.563C278.695 337.271 278.838 337.048 278.933 336.9C278.98 336.827 279.016 336.772 279.039 336.736C279.05 336.718 279.059 336.706 279.064 336.698C279.066 336.694 279.068 336.691 279.069 336.69C279.07 336.689 279.07 336.688 279.07 336.688C279.07 336.688 279.07 336.688 279.07 336.688C279.07 336.689 279.07 336.689 275.723 334.497ZM253.854 372.13C251.499 381.756 252.326 389.206 253.265 395.585C254.217 402.047 255.115 406.755 253.845 412.168L261.634 413.995C263.327 406.777 262.055 400.361 261.18 394.419C260.292 388.393 259.637 382.158 261.625 374.031L253.854 372.13ZM212.17 410.865C216.166 410.688 216.166 410.688 216.166 410.688C216.166 410.688 216.166 410.688 216.166 410.688C216.166 410.687 216.166 410.686 216.166 410.684C216.166 410.681 216.166 410.676 216.166 410.668C216.165 410.652 216.164 410.628 216.163 410.595C216.16 410.529 216.156 410.429 216.151 410.296C216.141 410.03 216.127 409.634 216.112 409.121C216.082 408.095 216.046 406.602 216.025 404.749C215.982 401.041 215.999 395.907 216.234 390.204C216.711 378.637 218.072 365.303 221.374 356.628L213.897 353.782C210.09 363.785 208.719 378.281 208.241 389.875C207.998 395.752 207.981 401.031 208.025 404.841C208.047 406.747 208.084 408.289 208.115 409.358C208.131 409.893 208.146 410.31 208.156 410.595C208.162 410.738 208.166 410.847 208.169 410.923C208.171 410.96 208.172 410.989 208.173 411.009C208.173 411.019 208.174 411.027 208.174 411.033C208.174 411.036 208.174 411.038 208.174 411.04C208.174 411.04 208.174 411.041 208.174 411.042C208.174 411.042 208.174 411.043 212.17 410.865ZM221.374 356.628C224.615 348.111 231.539 339.877 237.951 333.609C241.114 330.517 244.066 327.986 246.225 326.231C247.302 325.355 248.178 324.675 248.779 324.219C249.079 323.991 249.31 323.819 249.463 323.706C249.539 323.649 249.596 323.608 249.632 323.582C249.65 323.569 249.663 323.559 249.67 323.554C249.674 323.551 249.676 323.55 249.677 323.549C249.678 323.548 249.678 323.548 249.678 323.548C249.678 323.548 249.677 323.549 249.677 323.549C249.677 323.549 249.676 323.55 247.343 320.3C245.011 317.051 245.01 317.052 245.009 317.052C245.009 317.052 245.008 317.053 245.007 317.054C245.005 317.055 245.004 317.056 245.001 317.058C244.997 317.061 244.991 317.065 244.984 317.07C244.97 317.081 244.95 317.095 244.925 317.113C244.875 317.149 244.804 317.201 244.713 317.268C244.531 317.402 244.27 317.597 243.938 317.849C243.275 318.353 242.33 319.087 241.178 320.024C238.876 321.895 235.734 324.589 232.359 327.888C225.694 334.403 217.764 343.621 213.897 353.782L221.374 356.628ZM257.74 413.082C255.136 410.045 255.138 410.043 255.14 410.041C255.141 410.041 255.143 410.039 255.144 410.038C255.147 410.036 255.149 410.034 255.151 410.032C255.156 410.028 255.16 410.025 255.164 410.022C255.171 410.015 255.177 410.011 255.18 410.008C255.188 410.001 255.188 410.001 255.182 410.007C255.168 410.017 255.126 410.05 255.054 410.101C254.909 410.204 254.646 410.382 254.256 410.607C253.477 411.056 252.187 411.698 250.326 412.306C246.618 413.518 240.548 414.628 231.614 413.732L230.816 421.692C240.792 422.693 247.984 421.488 252.811 419.91C255.218 419.124 257.013 418.252 258.253 417.537C258.872 417.18 259.351 416.862 259.697 416.616C259.87 416.492 260.01 416.387 260.117 416.303C260.171 416.261 260.216 416.224 260.254 416.193C260.273 416.178 260.289 416.164 260.304 416.151C260.312 416.145 260.318 416.139 260.325 416.134C260.328 416.131 260.331 416.129 260.334 416.126C260.336 416.125 260.338 416.123 260.338 416.122C260.341 416.121 260.343 416.119 257.74 413.082ZM231.614 413.732C227.783 413.348 223.475 411.832 219.96 410.291C218.239 409.536 216.779 408.806 215.753 408.268C215.242 407.999 214.841 407.78 214.574 407.631C214.44 407.556 214.34 407.499 214.276 407.462C214.244 407.444 214.221 407.431 214.208 407.423C214.201 407.419 214.196 407.416 214.194 407.415C214.193 407.415 214.193 407.414 214.193 407.415C214.193 407.415 214.194 407.415 214.194 407.415C214.194 407.415 214.195 407.415 214.195 407.415C214.195 407.416 214.196 407.416 212.17 410.865C210.145 414.315 210.146 414.315 210.146 414.315C210.147 414.316 210.147 414.316 210.148 414.316C210.149 414.317 210.15 414.318 210.151 414.318C210.154 414.32 210.157 414.322 210.161 414.324C210.169 414.329 210.179 414.335 210.192 414.342C210.217 414.357 210.253 414.377 210.297 414.403C210.386 414.454 210.512 414.525 210.673 414.615C210.995 414.795 211.457 415.048 212.035 415.351C213.189 415.957 214.82 416.772 216.747 417.617C220.529 419.276 225.743 421.183 230.816 421.692L231.614 413.732Z" fill="black" fill-opacity="0.2"/>
<path d="M158.404 405.02C156.288 404.385 154.058 405.586 153.423 407.702C152.788 409.817 153.988 412.048 156.104 412.683L158.404 405.02ZM205.316 408.538C206.909 407.007 206.96 404.475 205.43 402.882C203.899 401.289 201.367 401.238 199.774 402.768L205.316 408.538ZM222.416 424.235C220.313 423.56 218.06 424.718 217.385 426.821C216.71 428.924 217.868 431.177 219.971 431.852L222.416 424.235ZM270.747 420.58L273.663 423.318L270.747 420.58ZM265.24 391.623C263.086 391.134 260.942 392.483 260.453 394.637C259.963 396.791 261.312 398.934 263.466 399.424L265.24 391.623ZM156.104 412.683C161.717 414.367 170.755 416.206 179.863 416.29C188.77 416.372 198.807 414.789 205.316 408.538L199.774 402.768C195.626 406.752 188.346 408.368 179.936 408.29C171.727 408.214 163.448 406.534 158.404 405.02L156.104 412.683ZM219.971 431.852C225.123 433.505 234.69 435.226 244.747 434.717C254.731 434.211 266.018 431.46 273.663 423.318L267.831 417.842C262.261 423.774 253.479 426.264 244.343 426.727C235.28 427.186 226.677 425.602 222.416 424.235L219.971 431.852ZM273.663 423.318C280.186 416.371 280.959 408.863 278.276 402.719C275.773 396.988 270.395 392.796 265.24 391.623L263.466 399.424C266.125 400.029 269.451 402.501 270.944 405.921C272.258 408.928 272.32 413.06 267.831 417.842L273.663 423.318Z" fill="#222325"/>
<path d="M158.404 405.02C156.288 404.385 154.058 405.586 153.423 407.702C152.788 409.817 153.988 412.048 156.104 412.683L158.404 405.02ZM205.316 408.538C206.909 407.007 206.96 404.475 205.43 402.882C203.899 401.289 201.367 401.238 199.774 402.768L205.316 408.538ZM222.416 424.235C220.313 423.56 218.06 424.718 217.385 426.821C216.71 428.924 217.868 431.177 219.971 431.852L222.416 424.235ZM270.747 420.58L273.663 423.318L270.747 420.58ZM265.24 391.623C263.086 391.134 260.942 392.483 260.453 394.637C259.963 396.791 261.312 398.934 263.466 399.424L265.24 391.623ZM156.104 412.683C161.717 414.367 170.755 416.206 179.863 416.29C188.77 416.372 198.807 414.789 205.316 408.538L199.774 402.768C195.626 406.752 188.346 408.368 179.936 408.29C171.727 408.214 163.448 406.534 158.404 405.02L156.104 412.683ZM219.971 431.852C225.123 433.505 234.69 435.226 244.747 434.717C254.731 434.211 266.018 431.46 273.663 423.318L267.831 417.842C262.261 423.774 253.479 426.264 244.343 426.727C235.28 427.186 226.677 425.602 222.416 424.235L219.971 431.852ZM273.663 423.318C280.186 416.371 280.959 408.863 278.276 402.719C275.773 396.988 270.395 392.796 265.24 391.623L263.466 399.424C266.125 400.029 269.451 402.501 270.944 405.921C272.258 408.928 272.32 413.06 267.831 417.842L273.663 423.318Z" fill="black" fill-opacity="0.2"/>
<g filter="url(#filter4_i_2_263)">
<path d="M160.286 204.138L164.556 186.111C144.81 190.312 133.849 206.442 132.225 221.274C130.296 238.883 138.204 249.521 164.557 257.766C197.498 268.073 243.86 267.351 249.35 246.737C254.84 226.124 217.019 225.518 187.127 225.518C163.214 225.518 159.269 211.211 160.286 204.138Z" fill="#C9CEF4"/>
</g>
<path d="M164.556 186.111L168.449 187.033C168.765 185.699 168.375 184.296 167.417 183.315C166.459 182.335 165.065 181.913 163.724 182.199L164.556 186.111ZM160.286 204.138L156.394 203.216C156.366 203.332 156.344 203.45 156.327 203.569L160.286 204.138ZM249.35 246.737L253.215 247.767L249.35 246.737ZM164.557 257.766L165.751 253.949L164.557 257.766ZM132.225 221.274L136.201 221.71L132.225 221.274ZM160.664 185.189L156.394 203.216L164.178 205.06L168.449 187.033L160.664 185.189ZM156.327 203.569C155.682 208.053 156.604 214.615 161.329 220.093C166.142 225.673 174.363 229.518 187.127 229.518V221.518C175.978 221.518 170.27 218.21 167.387 214.868C164.416 211.423 163.873 207.296 164.245 204.707L156.327 203.569ZM187.127 229.518C202.181 229.518 218.651 229.687 230.654 232.306C236.704 233.626 241.004 235.449 243.452 237.681C244.613 238.74 245.299 239.837 245.632 241.004C245.966 242.178 246.021 243.695 245.485 245.708L253.215 247.767C254.052 244.626 254.125 241.616 253.325 238.811C252.524 235.999 250.922 233.667 248.843 231.77C244.809 228.092 238.815 225.898 232.359 224.49C219.352 221.652 201.965 221.518 187.127 221.518V229.518ZM245.485 245.708C244.506 249.382 241.639 252.533 236.634 255.026C231.609 257.528 224.81 259.153 216.891 259.863C201.069 261.28 181.771 258.961 165.751 253.949L163.362 261.584C180.284 266.878 200.637 269.351 217.604 267.831C226.079 267.071 233.959 265.295 240.2 262.187C246.461 259.069 251.449 254.399 253.215 247.767L245.485 245.708ZM165.751 253.949C152.808 249.899 145.119 245.461 140.827 240.434C136.72 235.624 135.317 229.78 136.201 221.71L128.249 220.839C127.204 230.378 128.791 238.657 134.743 245.629C140.511 252.384 149.952 257.388 163.362 261.584L165.751 253.949ZM136.201 221.71C137.663 208.365 147.546 193.819 165.389 190.023L163.724 182.199C142.075 186.804 130.036 204.519 128.249 220.839L136.201 221.71Z" fill="#222325"/>
<path d="M164.556 186.111L168.449 187.033C168.765 185.699 168.375 184.296 167.417 183.315C166.459 182.335 165.065 181.913 163.724 182.199L164.556 186.111ZM160.286 204.138L156.394 203.216C156.366 203.332 156.344 203.45 156.327 203.569L160.286 204.138ZM249.35 246.737L253.215 247.767L249.35 246.737ZM164.557 257.766L165.751 253.949L164.557 257.766ZM132.225 221.274L136.201 221.71L132.225 221.274ZM160.664 185.189L156.394 203.216L164.178 205.06L168.449 187.033L160.664 185.189ZM156.327 203.569C155.682 208.053 156.604 214.615 161.329 220.093C166.142 225.673 174.363 229.518 187.127 229.518V221.518C175.978 221.518 170.27 218.21 167.387 214.868C164.416 211.423 163.873 207.296 164.245 204.707L156.327 203.569ZM187.127 229.518C202.181 229.518 218.651 229.687 230.654 232.306C236.704 233.626 241.004 235.449 243.452 237.681C244.613 238.74 245.299 239.837 245.632 241.004C245.966 242.178 246.021 243.695 245.485 245.708L253.215 247.767C254.052 244.626 254.125 241.616 253.325 238.811C252.524 235.999 250.922 233.667 248.843 231.77C244.809 228.092 238.815 225.898 232.359 224.49C219.352 221.652 201.965 221.518 187.127 221.518V229.518ZM245.485 245.708C244.506 249.382 241.639 252.533 236.634 255.026C231.609 257.528 224.81 259.153 216.891 259.863C201.069 261.28 181.771 258.961 165.751 253.949L163.362 261.584C180.284 266.878 200.637 269.351 217.604 267.831C226.079 267.071 233.959 265.295 240.2 262.187C246.461 259.069 251.449 254.399 253.215 247.767L245.485 245.708ZM165.751 253.949C152.808 249.899 145.119 245.461 140.827 240.434C136.72 235.624 135.317 229.78 136.201 221.71L128.249 220.839C127.204 230.378 128.791 238.657 134.743 245.629C140.511 252.384 149.952 257.388 163.362 261.584L165.751 253.949ZM136.201 221.71C137.663 208.365 147.546 193.819 165.389 190.023L163.724 182.199C142.075 186.804 130.036 204.519 128.249 220.839L136.201 221.71Z" fill="black" fill-opacity="0.2"/>
<g filter="url(#filter5_i_2_263)">
<path d="M381.077 294.124C370.736 298.676 368.784 317.402 371.506 322.054C380 336.568 383.829 341.138 399.218 350.695C419.532 363.31 447.811 368.242 461.458 368.242C485.991 368.242 502.032 363.369 504.617 350.695C507.202 338.021 488.716 335.061 476.904 335.061C454.844 335.061 441.267 336.427 421.479 324.152C403.799 313.184 401.975 306.988 399.218 299.574C397.925 297.16 391.418 289.571 381.077 294.124Z" fill="#C9CEF4"/>
</g>
<path d="M371.506 322.054L368.054 324.074H368.054L371.506 322.054ZM381.077 294.124L382.689 297.785V297.785L381.077 294.124ZM399.218 299.574L402.967 298.179C402.904 298.01 402.829 297.845 402.744 297.686L399.218 299.574ZM421.479 324.152L419.37 327.551L421.479 324.152ZM399.218 350.695L401.328 347.297H401.328L399.218 350.695ZM374.958 320.033C374.959 320.035 374.947 320.014 374.925 319.964C374.903 319.914 374.874 319.842 374.842 319.746C374.776 319.551 374.705 319.286 374.639 318.945C374.506 318.257 374.415 317.367 374.398 316.306C374.366 314.181 374.635 311.605 375.276 309.01C376.621 303.568 379.248 299.299 382.689 297.785L379.465 290.463C372.566 293.5 369.046 300.871 367.51 307.092C366.71 310.33 366.356 313.592 366.399 316.429C366.44 319.082 366.834 321.99 368.054 324.074L374.958 320.033ZM382.689 297.785C386.653 296.039 389.583 296.668 391.67 297.772C393.97 298.989 395.377 300.875 395.691 301.462L402.744 297.686C401.765 295.858 399.273 292.744 395.411 290.701C391.336 288.545 385.842 287.656 379.465 290.463L382.689 297.785ZM395.468 300.968C396.817 304.593 398.15 308.584 401.602 312.996C405.018 317.36 410.329 321.942 419.37 327.551L423.587 320.752C414.949 315.394 410.508 311.395 407.902 308.065C405.334 304.783 404.376 301.969 402.967 298.179L395.468 300.968ZM419.37 327.551C440.288 340.526 455.065 339.061 476.904 339.061V331.061C454.624 331.061 442.246 332.327 423.587 320.752L419.37 327.551ZM476.904 339.061C482.608 339.061 489.587 339.791 494.666 341.836C497.197 342.854 498.898 344.058 499.846 345.314C500.679 346.418 501.125 347.801 500.698 349.895L508.537 351.494C509.402 347.251 508.507 343.511 506.232 340.496C504.072 337.633 500.898 335.72 497.653 334.414C491.183 331.81 483.012 331.061 476.904 331.061V339.061ZM500.698 349.895C499.773 354.43 496.475 357.972 489.851 360.481C483.125 363.028 473.553 364.242 461.458 364.242V372.242C473.896 372.242 484.611 371.02 492.685 367.962C500.861 364.865 506.876 359.633 508.537 351.494L500.698 349.895ZM461.458 364.242C448.354 364.242 420.856 359.424 401.328 347.297L397.107 354.093C418.208 367.196 447.268 372.242 461.458 372.242V364.242ZM401.328 347.297C393.723 342.574 389.264 339.256 385.677 335.479C382.078 331.689 379.192 327.268 374.958 320.033L368.054 324.074C372.314 331.354 375.591 336.476 379.876 340.988C384.174 345.513 389.324 349.259 397.107 354.093L401.328 347.297Z" fill="#222325"/>
<path d="M371.506 322.054L368.054 324.074H368.054L371.506 322.054ZM381.077 294.124L382.689 297.785V297.785L381.077 294.124ZM399.218 299.574L402.967 298.179C402.904 298.01 402.829 297.845 402.744 297.686L399.218 299.574ZM421.479 324.152L419.37 327.551L421.479 324.152ZM399.218 350.695L401.328 347.297H401.328L399.218 350.695ZM374.958 320.033C374.959 320.035 374.947 320.014 374.925 319.964C374.903 319.914 374.874 319.842 374.842 319.746C374.776 319.551 374.705 319.286 374.639 318.945C374.506 318.257 374.415 317.367 374.398 316.306C374.366 314.181 374.635 311.605 375.276 309.01C376.621 303.568 379.248 299.299 382.689 297.785L379.465 290.463C372.566 293.5 369.046 300.871 367.51 307.092C366.71 310.33 366.356 313.592 366.399 316.429C366.44 319.082 366.834 321.99 368.054 324.074L374.958 320.033ZM382.689 297.785C386.653 296.039 389.583 296.668 391.67 297.772C393.97 298.989 395.377 300.875 395.691 301.462L402.744 297.686C401.765 295.858 399.273 292.744 395.411 290.701C391.336 288.545 385.842 287.656 379.465 290.463L382.689 297.785ZM395.468 300.968C396.817 304.593 398.15 308.584 401.602 312.996C405.018 317.36 410.329 321.942 419.37 327.551L423.587 320.752C414.949 315.394 410.508 311.395 407.902 308.065C405.334 304.783 404.376 301.969 402.967 298.179L395.468 300.968ZM419.37 327.551C440.288 340.526 455.065 339.061 476.904 339.061V331.061C454.624 331.061 442.246 332.327 423.587 320.752L419.37 327.551ZM476.904 339.061C482.608 339.061 489.587 339.791 494.666 341.836C497.197 342.854 498.898 344.058 499.846 345.314C500.679 346.418 501.125 347.801 500.698 349.895L508.537 351.494C509.402 347.251 508.507 343.511 506.232 340.496C504.072 337.633 500.898 335.72 497.653 334.414C491.183 331.81 483.012 331.061 476.904 331.061V339.061ZM500.698 349.895C499.773 354.43 496.475 357.972 489.851 360.481C483.125 363.028 473.553 364.242 461.458 364.242V372.242C473.896 372.242 484.611 371.02 492.685 367.962C500.861 364.865 506.876 359.633 508.537 351.494L500.698 349.895ZM461.458 364.242C448.354 364.242 420.856 359.424 401.328 347.297L397.107 354.093C418.208 367.196 447.268 372.242 461.458 372.242V364.242ZM401.328 347.297C393.723 342.574 389.264 339.256 385.677 335.479C382.078 331.689 379.192 327.268 374.958 320.033L368.054 324.074C372.314 331.354 375.591 336.476 379.876 340.988C384.174 345.513 389.324 349.259 397.107 354.093L401.328 347.297Z" fill="black" fill-opacity="0.2"/>
<defs>
<filter id="filter0_i_2_263" x="145.116" y="99.015" width="276.383" height="282.104" filterUnits="userSpaceOnUse" color-interpolation-filters="sRGB">
<feFlood flood-opacity="0" result="BackgroundImageFix"/>
<feBlend mode="normal" in="SourceGraphic" in2="BackgroundImageFix" result="shape"/>
<feColorMatrix in="SourceAlpha" type="matrix" values="0 0 0 0 0 0 0 0 0 0 0 0 0 0 0 0 0 0 127 0" result="hardAlpha"/>
<feOffset dx="-6" dy="-52"/>
<feGaussianBlur stdDeviation="5"/>
<feComposite in2="hardAlpha" operator="arithmetic" k2="-1" k3="1"/>
<feColorMatrix type="matrix" values="0 0 0 0 0.788235 0 0 0 0 0.807843 0 0 0 0 0.956863 0 0 0 1 0"/>
<feBlend mode="normal" in2="shape" result="effect1_innerShadow_2_263"/>
</filter>
<filter id="filter1_i_2_263" x="169.721" y="202.602" width="224.864" height="159.697" filterUnits="userSpaceOnUse" color-interpolation-filters="sRGB">
<feFlood flood-opacity="0" result="BackgroundImageFix"/>
<feBlend mode="normal" in="SourceGraphic" in2="BackgroundImageFix" result="shape"/>
<feColorMatrix in="SourceAlpha" type="matrix" values="0 0 0 0 0 0 0 0 0 0 0 0 0 0 0 0 0 0 127 0" result="hardAlpha"/>
<feOffset dx="-7" dy="-14"/>
<feGaussianBlur stdDeviation="1.5"/>
<feComposite in2="hardAlpha" operator="arithmetic" k2="-1" k3="1"/>
<feColorMatrix type="matrix" values="0 0 0 0 0.321569 0 0 0 0 0.376471 0 0 0 0 0.866667 0 0 0 0.6 0"/>
<feBlend mode="normal" in2="shape" result="effect1_innerShadow_2_263"/>
</filter>
<filter id="filter2_i_2_263" x="147.67" y="290.868" width="76.3058" height="115.203" filterUnits="userSpaceOnUse" color-interpolation-filters="sRGB">
<feFlood flood-opacity="0" result="BackgroundImageFix"/>
<feBlend mode="normal" in="SourceGraphic" in2="BackgroundImageFix" result="shape"/>
<feColorMatrix in="SourceAlpha" type="matrix" values="0 0 0 0 0 0 0 0 0 0 0 0 0 0 0 0 0 0 127 0" result="hardAlpha"/>
<feOffset dx="-12" dy="-12"/>
<feGaussianBlur stdDeviation="1.5"/>
<feComposite in2="hardAlpha" operator="arithmetic" k2="-1" k3="1"/>
<feColorMatrix type="matrix" values="0 0 0 0 0.368627 0 0 0 0 0.423529 0 0 0 0 0.921569 0 0 0 1 0"/>
<feBlend mode="normal" in2="shape" result="effect1_innerShadow_2_263"/>
</filter>
<filter id="filter3_i_2_263" x="205.006" y="311.427" width="74.717" height="110.63" filterUnits="userSpaceOnUse" color-interpolation-filters="sRGB">
<feFlood flood-opacity="0" result="BackgroundImageFix"/>
<feBlend mode="normal" in="SourceGraphic" in2="BackgroundImageFix" result="shape"/>
<feColorMatrix in="SourceAlpha" type="matrix" values="0 0 0 0 0 0 0 0 0 0 0 0 0 0 0 0 0 0 127 0" result="hardAlpha"/>
<feOffset dx="-12" dy="-12"/>
<feGaussianBlur stdDeviation="1.5"/>
<feComposite in2="hardAlpha" operator="arithmetic" k2="-1" k3="1"/>
<feColorMatrix type="matrix" values="0 0 0 0 0.368627 0 0 0 0 0.423529 0 0 0 0 0.921569 0 0 0 1 0"/>
<feBlend mode="normal" in2="shape" result="effect1_innerShadow_2_263"/>
</filter>
<filter id="filter4_i_2_263" x="124.95" y="179.111" width="128.936" height="89.1623" filterUnits="userSpaceOnUse" color-interpolation-filters="sRGB">
<feFlood flood-opacity="0" result="BackgroundImageFix"/>
<feBlend mode="normal" in="SourceGraphic" in2="BackgroundImageFix" result="shape"/>
<feColorMatrix in="SourceAlpha" type="matrix" values="0 0 0 0 0 0 0 0 0 0 0 0 0 0 0 0 0 0 127 0" result="hardAlpha"/>
<feOffset dx="-5" dy="-13"/>
<feGaussianBlur stdDeviation="1.5"/>
<feComposite in2="hardAlpha" operator="arithmetic" k2="-1" k3="1"/>
<feColorMatrix type="matrix" values="0 0 0 0 0.321569 0 0 0 0 0.376471 0 0 0 0 0.866667 0 0 0 0.6 0"/>
<feBlend mode="normal" in2="shape" result="effect1_innerShadow_2_263"/>
</filter>
<filter id="filter5_i_2_263" x="363.396" y="285.697" width="145.466" height="86.5452" filterUnits="userSpaceOnUse" color-interpolation-filters="sRGB">
<feFlood flood-opacity="0" result="BackgroundImageFix"/>
<feBlend mode="normal" in="SourceGraphic" in2="BackgroundImageFix" result="shape"/>
<feColorMatrix in="SourceAlpha" type="matrix" values="0 0 0 0 0 0 0 0 0 0 0 0 0 0 0 0 0 0 127 0" result="hardAlpha"/>
<feOffset dx="-5" dy="-13"/>
<feGaussianBlur stdDeviation="1.5"/>
<feComposite in2="hardAlpha" operator="arithmetic" k2="-1" k3="1"/>
<feColorMatrix type="matrix" values="0 0 0 0 0.321569 0 0 0 0 0.376471 0 0 0 0 0.866667 0 0 0 0.6 0"/>
<feBlend mode="normal" in2="shape" result="effect1_innerShadow_2_263"/>
</filter>
</defs>
</svg>
